<svg xmlns="http://www.w3.org/2000/svg" fill="#fff" id="Layer_1" data-name="Layer 1" viewBox="0 0 24 24" width="512" height="512"><path d="m16.395 10.122-5.192-2.843a2.128 2.128 0 0 0-2.138.017 2.127 2.127 0 0 0-1.064 1.855v5.699c0 .772.397 1.465 1.064 1.855a2.118 2.118 0 0 0 2.128.023l5.212-2.854c.687-.386 1.096-1.086 1.096-1.873s-.409-1.487-1.105-1.878Zm-.961 2.003-5.212 2.855c-.019.01-.077.042-.147-.001-.074-.043-.074-.107-.074-.128V9.152c0-.021 0-.085.074-.128a.142.142 0 0 1 .074-.021.17.17 0 0 1 .083.026l5.192 2.844c.019.011.076.043.076.13s-.058.119-.066.125ZM12 0C5.383 0 0 5.383 0 12s5.383 12 12 12 12-5.383 12-12S18.617 0 12 0Zm0 22C6.486 22 2 17.514 2 12S6.486 2 12 2s10 4.486 10 10-4.486 10-10 10Z"/></svg>